<svg width="24" height="24" viewBox="0 0 24 24" fill="#F36923" xmlns="http://www.w3.org/2000/svg">
<path fill-rule="evenodd" clip-rule="evenodd" d="M5.73533 0.142832C5.23801 0.434359 4.99916 0.846314 5 1.41104C5.00089 2.01158 4.97161 1.97483 7.75527 4.86765C9.11785 6.28366 10.3158 7.56584 10.4173 7.71688C10.6648 8.08533 10.8312 8.52349 10.8921 8.9676C10.9198 9.16931 10.9429 10.0236 10.9435 10.8661C10.9443 11.8394 10.9638 12.4749 10.9971 12.6089C11.0259 12.7249 11.0501 13.0519 11.051 13.3355C11.0538 14.2345 10.8293 14.8331 10.1455 15.7504C9.9156 16.0588 9.57992 16.5381 9.39949 16.8155C9.01715 17.4036 8.27133 18.8984 8.02923 19.562C7.6183 20.6882 7.28187 22.1398 7.31908 22.6259C7.35885 23.1453 7.65891 23.595 8.13641 23.8509C8.3878 23.9857 8.45367 24 8.8211 24C9.18848 24 9.25445 23.9857 9.50556 23.8511C9.92418 23.6267 10.0932 23.3993 10.4301 22.6071C11.4198 20.2801 12.6066 18.2206 13.5242 17.238C13.7057 17.0437 13.7478 17.0293 13.8328 17.1323C13.8671 17.1739 14.0305 18.3255 14.2336 19.9566C14.4223 21.4714 14.5899 22.774 14.6061 22.8514C14.6897 23.2508 15.0313 23.662 15.4615 23.8812C15.6578 23.9812 15.7587 24 16.0986 24C16.4619 24 16.5269 23.9859 16.7469 23.8593C17.0087 23.7088 17.3233 23.3951 17.4398 23.1687C17.5627 22.9297 17.6067 22.5016 17.7752 19.9062C17.8654 18.5184 17.9698 17.22 18.0073 17.0211C18.0449 16.8222 18.1586 16.411 18.26 16.1074C18.3614 15.8038 18.4693 15.3844 18.4997 15.1755C18.6034 14.4624 18.4736 13.4378 18.1714 12.5835C18.0897 12.3525 17.9939 12.0581 17.9585 11.9292C17.8541 11.5492 17.7494 10.4777 17.7493 9.78977C17.7492 9.24258 17.7614 9.13528 17.8336 9.04565C17.9149 8.94468 17.9234 8.94369 18.0657 9.01771C18.2465 9.11165 18.5435 9.49886 18.7021 9.84706C18.7669 9.98938 18.842 10.2735 18.8689 10.4784C18.992 11.4138 19.1103 11.685 19.5119 11.9524C20.1305 12.3644 20.8901 12.2846 21.3635 11.7578C21.6757 11.4103 21.7358 11.2128 21.7322 10.5463C21.7262 9.43417 21.4041 8.35009 20.805 7.42596C20.1628 6.43536 18.9029 5.43622 17.7463 5.00031C17.578 4.93689 17.2377 4.83793 16.9901 4.78041C16.4683 4.65919 16.4405 4.62464 16.5902 4.28441C16.6458 4.15789 16.7193 3.94877 16.7535 3.81972C16.8401 3.49313 16.8352 2.52755 16.7454 2.18076C16.571 1.5077 16.1229 0.967209 15.4682 0.64043C15.4682 0.64043 15.0986 0.380282 14.4648 0.380282C13.831 0.380282 13.4565 0.64043 13.4565 0.64043C12.8018 0.967209 12.3537 1.5077 12.1793 2.18076C12.0878 2.53402 12.0845 3.49599 12.1737 3.81948C12.2092 3.94839 12.2758 4.15245 12.3217 4.27288C12.3936 4.4617 12.3961 4.50281 12.3399 4.57087C12.2537 4.67531 11.9526 4.63556 11.5989 4.47299C11.3777 4.37132 11.0346 4.04862 9.31063 2.32073C7.95552 0.962522 7.20066 0.240101 7.03576 0.143535C6.8108 0.0118108 6.75299 -0.00089281 6.38305 4.47282e-05C6.01674 0.000982267 5.95356 0.0149047 5.73533 0.142832ZM7.58562 2.10833C7.58562 1.99011 6.81369 1.16325 6.59723 1.04953C6.44034 0.967163 6.33792 0.968381 6.18024 1.05449C6.00797 1.14862 5.93757 1.37012 6.01902 1.56166C6.11982 1.79881 6.93496 2.62548 7.06727 2.62473C7.21259 2.62393 7.58562 2.25234 7.58562 2.10833ZM15.6735 2.11213C15.5153 1.82243 15.1698 1.52354 14.914 1.4551C14.43 1.32563 14.0187 1.38273 13.6781 1.62677C13.4519 1.78892 13.2035 2.13416 13.1352 2.38144C13.0635 2.64072 13.0763 3.4147 13.1567 3.68691C13.2452 3.98632 13.5372 4.32374 13.8506 4.48879C14.0518 4.59478 14.1481 4.61456 14.4624 4.61456C14.7766 4.61456 14.873 4.59478 15.0742 4.48879C15.2056 4.4196 15.4 4.26364 15.5064 4.14223C15.7784 3.83144 15.852 3.54619 15.8299 2.88827C15.814 2.41496 15.7994 2.34263 15.6735 2.11213ZM20.7291 9.95328C20.6785 9.58755 20.6241 9.42798 20.5279 9.36338C20.4579 9.31641 20.3348 9.32461 20.042 9.39587C19.6924 9.48095 19.6767 9.50579 19.7514 9.85489C19.7858 10.0161 19.8378 10.3313 19.8669 10.5557C19.9076 10.8694 19.9444 10.9899 20.027 11.0782C20.1606 11.2213 20.3106 11.2525 20.493 11.1755C20.7707 11.058 20.8355 10.7224 20.7291 9.95328ZM17.5504 14.7418C17.5857 14.0048 17.3691 12.971 17.1404 12.7848C17.0472 12.7089 16.8547 12.7027 14.5981 12.7027H12.1567L12.0798 12.8207C12.0263 12.9028 12.0113 12.9914 12.0306 13.1112C12.0734 13.3759 11.9776 14.1591 11.8473 14.6112C11.6834 15.18 11.3909 15.7172 10.8444 16.4528C10.0775 17.4851 9.47199 18.5545 9.05976 19.6047C8.87295 20.0807 8.86278 20.2577 9.01883 20.3182C9.24168 20.4046 10.094 20.56 10.1765 20.5293C10.3079 20.4805 10.3309 20.4457 10.7314 19.6912C11.8185 17.6433 13.0796 16.0443 13.9684 15.587C14.2472 15.4436 14.5542 15.5525 14.6673 15.8351C14.6949 15.9041 14.8429 16.97 14.996 18.2036C15.1645 19.5612 15.2979 20.4749 15.3339 20.5186C15.3832 20.5783 15.4693 20.5855 15.837 20.5606C16.482 20.517 16.6276 20.485 16.7023 20.3705C16.7486 20.2994 16.7959 19.8512 16.8636 18.8419C16.9781 17.1348 17.0401 16.7281 17.3169 15.8669C17.4923 15.3213 17.5317 15.1314 17.5504 14.7418ZM9.73023 21.6633C9.73023 21.5281 9.64375 21.4801 9.21422 21.3765C8.7273 21.2592 8.64627 21.2584 8.54598 21.3697C8.46673 21.4578 8.28672 22.2162 8.28555 22.4671C8.28346 22.9164 8.8259 23.183 9.16256 22.8982C9.30331 22.7791 9.73023 21.8504 9.73023 21.6633ZM16.6392 22.218C16.669 21.8873 16.6675 21.6959 16.6344 21.623C16.5907 21.5265 16.5558 21.5161 16.2933 21.5214C15.8979 21.5293 15.6289 21.5775 15.5329 21.6577C15.4652 21.7141 15.4576 21.7778 15.4826 22.0769C15.5236 22.5682 15.5848 22.7562 15.7494 22.8954C15.9603 23.0738 16.2094 23.061 16.427 22.8605C16.5919 22.7085 16.5962 22.6956 16.6392 22.218Z" fill="#F36923"/>
<path fill-rule="evenodd" clip-rule="evenodd" d="M3.33628 5.03189C3.13514 5.09806 3.01506 5.30207 2.96402 5.6643C2.91092 6.04135 2.80051 6.259 2.52084 6.53814C2.27703 6.78139 1.83259 6.98474 1.5469 6.98371C1.26831 6.98272 1 7.23554 1 7.49911C1 7.77604 1.26873 8.01498 1.58023 8.01498C1.83755 8.01498 2.25814 8.19699 2.48448 8.40633C2.73843 8.64115 2.91288 8.97548 2.9491 9.29659C3.01936 9.91985 3.43402 10.1898 3.80722 9.85532C3.92141 9.7529 3.96563 9.6576 4.01934 9.39808C4.11199 8.95007 4.28358 8.61681 4.53656 8.39339C4.77256 8.18498 5.17002 8.01498 5.42131 8.01498C5.90329 8.01498 6.17533 7.5061 5.873 7.17017C5.7688 7.05438 5.68691 7.01822 5.44062 6.97939C4.65164 6.85483 4.18444 6.4192 4.03654 5.67011C3.96554 5.31037 3.90468 5.16916 3.7882 5.09389C3.63132 4.9925 3.50759 4.97552 3.33628 5.03189ZM3.89809 7.50544C3.89809 7.47796 3.83279 7.38088 3.753 7.28971C3.67321 7.19854 3.57023 7.12393 3.52414 7.12393C3.43753 7.12393 3.15019 7.41704 3.15019 7.50544C3.15019 7.57391 3.45473 7.87429 3.52414 7.87429C3.59356 7.87429 3.89809 7.57391 3.89809 7.50544Z" fill="#F36923"/>
<path d="M3.753 7.28971C3.83279 7.38088 3.89809 7.47796 3.89809 7.50544C3.89809 7.57391 3.59356 7.87429 3.52414 7.87429C3.45473 7.87429 3.15019 7.57391 3.15019 7.50544C3.15019 7.41704 3.43753 7.12393 3.52414 7.12393C3.57023 7.12393 3.67321 7.19854 3.753 7.28971Z" fill="#F36923"/>
<path d="M4.7517 12.1988C4.35765 12.4122 4 13 4 13.434C4 13.9024 4.40526 14.6004 4.7937 14.8009C5.44104 15.1353 6.0567 15.0468 6.55652 14.5477C6.93504 14.1698 7 14.0153 7 13.4928C7 12.9702 6.93504 12.8157 6.55652 12.4378C6.20239 12.0841 6.01182 11.996 5.61087 12.0001C5.33474 12.003 4.948 12.0924 4.7517 12.1988Z" fill="#F36923"/>
</svg>
